<svg xmlns="http://www.w3.org/2000/svg" xmlns:xlink="http://www.w3.org/1999/xlink" width="600" zoomAndPan="magnify" viewBox="0 0 450 449.999984" height="600" preserveAspectRatio="xMidYMid meet" version="1.0"><defs><g/><clipPath id="ca7c0598f0"><path d="M 84.777344 160.972656 L 219 160.972656 L 219 297 L 84.777344 297 Z M 84.777344 160.972656 " clip-rule="nonzero"/></clipPath><clipPath id="0eb0fcac8f"><path d="M 182.800781 296.363281 C 180.832031 296.324219 178.886719 296.089844 176.964844 295.660156 C 175.042969 295.230469 173.179688 294.613281 171.378906 293.808594 C 169.582031 293.007812 167.878906 292.035156 166.269531 290.890625 C 164.664062 289.746094 163.183594 288.457031 161.832031 287.015625 C 138.71875 263.902344 115.507812 240.917969 92.648438 217.546875 C 91.914062 216.78125 91.21875 215.980469 90.5625 215.144531 C 89.902344 214.3125 89.285156 213.445312 88.710938 212.550781 C 88.132812 211.660156 87.601562 210.738281 87.113281 209.792969 C 86.625 208.847656 86.183594 207.882812 85.789062 206.894531 C 85.390625 205.90625 85.042969 204.902344 84.746094 203.882812 C 84.445312 202.859375 84.191406 201.828125 83.992188 200.78125 C 83.789062 199.734375 83.636719 198.683594 83.539062 197.621094 C 83.4375 196.5625 83.386719 195.5 83.386719 194.433594 C 83.386719 193.371094 83.4375 192.308594 83.539062 191.246094 C 83.636719 190.1875 83.789062 189.132812 83.992188 188.089844 C 84.191406 187.042969 84.445312 186.011719 84.746094 184.988281 C 85.042969 183.96875 85.390625 182.964844 85.789062 181.976562 C 86.183594 180.988281 86.625 180.019531 87.113281 179.074219 C 87.601562 178.128906 88.132812 177.210938 88.710938 176.316406 C 89.285156 175.421875 89.902344 174.558594 90.5625 173.726562 C 91.21875 172.890625 91.914062 172.089844 92.648438 171.320312 C 105.25 158.429688 125.636719 156.976562 138.527344 169.421875 C 162.570312 192.628906 186.1875 216.269531 209.375 240.339844 C 210.570312 241.496094 211.664062 242.742188 212.65625 244.074219 C 213.648438 245.410156 214.53125 246.8125 215.300781 248.289062 C 216.070312 249.765625 216.71875 251.296875 217.242188 252.878906 C 217.765625 254.457031 218.164062 256.070312 218.429688 257.714844 C 218.695312 259.359375 218.832031 261.015625 218.832031 262.683594 C 218.835938 264.351562 218.703125 266.007812 218.441406 267.652344 C 218.179688 269.296875 217.789062 270.914062 217.269531 272.496094 C 216.746094 274.078125 216.105469 275.609375 215.339844 277.085938 C 209.3125 289.917969 198.796875 296.910156 182.800781 296.363281 Z M 182.800781 296.363281 " clip-rule="nonzero"/></clipPath><linearGradient x1="168.63869" gradientTransform="matrix(3.205893, 0, 0, 3.22355, -309.818371, 160.974414)" y1="6.287024" x2="119.220313" gradientUnits="userSpaceOnUse" y2="35.669902" id="d7faadd8c7"><stop stop-opacity="1" stop-color="rgb(45.942688%, 34.680176%, 84.616089%)" offset="0"/><stop stop-opacity="1" stop-color="rgb(45.800781%, 34.57489%, 84.547424%)" offset="0.03125"/><stop stop-opacity="1" stop-color="rgb(45.518494%, 34.365845%, 84.411621%)" offset="0.0625"/><stop stop-opacity="1" stop-color="rgb(45.237732%, 34.156799%, 84.275818%)" offset="0.09375"/><stop stop-opacity="1" stop-color="rgb(44.955444%, 33.947754%, 84.140015%)" offset="0.125"/><stop stop-opacity="1" stop-color="rgb(44.673157%, 33.738708%, 84.004211%)" offset="0.15625"/><stop stop-opacity="1" stop-color="rgb(44.390869%, 33.529663%, 83.868408%)" offset="0.1875"/><stop stop-opacity="1" stop-color="rgb(44.110107%, 33.320618%, 83.731079%)" offset="0.21875"/><stop stop-opacity="1" stop-color="rgb(43.82782%, 33.111572%, 83.595276%)" offset="0.25"/><stop stop-opacity="1" stop-color="rgb(43.545532%, 32.902527%, 83.459473%)" offset="0.28125"/><stop stop-opacity="1" stop-color="rgb(43.263245%, 32.693481%, 83.323669%)" offset="0.3125"/><stop stop-opacity="1" stop-color="rgb(42.980957%, 32.484436%, 83.187866%)" offset="0.34375"/><stop stop-opacity="1" stop-color="rgb(42.700195%, 32.275391%, 83.052063%)" offset="0.374849"/><stop stop-opacity="1" stop-color="rgb(42.559814%, 32.171631%, 82.984924%)" offset="0.375"/><stop stop-opacity="1" stop-color="rgb(42.417908%, 32.066345%, 82.91626%)" offset="0.40625"/><stop stop-opacity="1" stop-color="rgb(42.13562%, 31.8573%, 82.778931%)" offset="0.4375"/><stop stop-opacity="1" stop-color="rgb(41.853333%, 31.648254%, 82.643127%)" offset="0.46875"/><stop stop-opacity="1" stop-color="rgb(41.572571%, 31.439209%, 82.507324%)" offset="0.5"/><stop stop-opacity="1" stop-color="rgb(41.290283%, 31.230164%, 82.371521%)" offset="0.53125"/><stop stop-opacity="1" stop-color="rgb(41.007996%, 31.021118%, 82.235718%)" offset="0.5625"/><stop stop-opacity="1" stop-color="rgb(40.725708%, 30.812073%, 82.099915%)" offset="0.59375"/><stop stop-opacity="1" stop-color="rgb(40.44342%, 30.603027%, 81.962585%)" offset="0.625"/><stop stop-opacity="1" stop-color="rgb(40.162659%, 30.393982%, 81.826782%)" offset="0.625151"/><stop stop-opacity="1" stop-color="rgb(40.022278%, 30.290222%, 81.759644%)" offset="0.65625"/><stop stop-opacity="1" stop-color="rgb(39.880371%, 30.184937%, 81.690979%)" offset="0.6875"/><stop stop-opacity="1" stop-color="rgb(39.598083%, 29.975891%, 81.555176%)" offset="0.71875"/><stop stop-opacity="1" stop-color="rgb(39.315796%, 29.766846%, 81.419373%)" offset="0.75"/><stop stop-opacity="1" stop-color="rgb(39.035034%, 29.5578%, 81.283569%)" offset="0.78125"/><stop stop-opacity="1" stop-color="rgb(38.752747%, 29.350281%, 81.14624%)" offset="0.8125"/><stop stop-opacity="1" stop-color="rgb(38.470459%, 29.141235%, 81.010437%)" offset="0.84375"/><stop stop-opacity="1" stop-color="rgb(38.188171%, 28.93219%, 80.874634%)" offset="0.875"/><stop stop-opacity="1" stop-color="rgb(37.905884%, 28.723145%, 80.738831%)" offset="0.90625"/><stop stop-opacity="1" stop-color="rgb(37.625122%, 28.514099%, 80.603027%)" offset="0.9375"/><stop stop-opacity="1" stop-color="rgb(37.342834%, 28.305054%, 80.467224%)" offset="0.96875"/><stop stop-opacity="1" stop-color="rgb(37.060547%, 28.096008%, 80.329895%)" offset="1"/></linearGradient><clipPath id="7bb5f0a750"><path d="M 82 89 L 216.089844 89 L 216.089844 225 L 82 225 Z M 82 89 " clip-rule="nonzero"/></clipPath><clipPath id="45bdcf97a6"><path d="M 82.550781 188.53125 C 82.589844 186.5625 82.824219 184.617188 83.253906 182.695312 C 83.683594 180.773438 84.300781 178.914062 85.101562 177.113281 C 85.90625 175.3125 86.878906 173.609375 88.023438 172.003906 C 89.167969 170.394531 90.457031 168.914062 91.898438 167.566406 C 115.011719 144.449219 137.996094 121.238281 161.367188 98.382812 C 162.132812 97.648438 162.933594 96.949219 163.769531 96.292969 C 164.601562 95.636719 165.464844 95.019531 166.359375 94.441406 C 167.253906 93.867188 168.175781 93.335938 169.117188 92.847656 C 170.0625 92.359375 171.03125 91.917969 172.019531 91.519531 C 173.007812 91.125 174.011719 90.777344 175.03125 90.476562 C 176.054688 90.175781 177.085938 89.925781 178.132812 89.722656 C 179.175781 89.523438 180.230469 89.371094 181.289062 89.269531 C 182.351562 89.167969 183.414062 89.117188 184.476562 89.117188 C 185.542969 89.117188 186.605469 89.167969 187.664062 89.269531 C 188.726562 89.371094 189.777344 89.523438 190.824219 89.722656 C 191.871094 89.925781 192.902344 90.175781 193.925781 90.476562 C 194.945312 90.777344 195.949219 91.125 196.9375 91.519531 C 197.925781 91.917969 198.890625 92.359375 199.835938 92.847656 C 200.78125 93.335938 201.703125 93.867188 202.597656 94.441406 C 203.488281 95.019531 204.355469 95.632812 205.1875 96.292969 C 206.023438 96.949219 206.824219 97.648438 207.589844 98.382812 C 220.484375 110.980469 221.9375 131.371094 209.492188 144.257812 C 186.285156 168.300781 162.644531 191.917969 138.574219 215.109375 C 137.417969 216.300781 136.171875 217.394531 134.839844 218.386719 C 133.503906 219.382812 132.097656 220.265625 130.621094 221.03125 C 129.144531 221.800781 127.617188 222.449219 126.035156 222.972656 C 124.453125 223.5 122.839844 223.894531 121.195312 224.160156 C 119.550781 224.429688 117.894531 224.5625 116.230469 224.566406 C 114.5625 224.566406 112.90625 224.4375 111.261719 224.175781 C 109.613281 223.914062 108 223.519531 106.417969 223 C 104.835938 222.480469 103.304688 221.835938 101.828125 221.070312 C 88.996094 215.042969 82 204.527344 82.550781 188.53125 Z M 82.550781 188.53125 " clip-rule="nonzero"/></clipPath><linearGradient x1="168.38683" gradientTransform="matrix(0.000000000000000196, 3.205893, -3.22355, 0.000000000000000197, 217.93861, -304.086239)" y1="6.436773" x2="118.899075" gradientUnits="userSpaceOnUse" y2="35.860902" id="51e92fe72d"><stop stop-opacity="1" stop-color="rgb(55.831909%, 33.276367%, 83.985901%)" offset="0"/><stop stop-opacity="1" stop-color="rgb(55.712891%, 33.230591%, 83.953857%)" offset="0.015625"/><stop stop-opacity="1" stop-color="rgb(55.474854%, 33.140564%, 83.892822%)" offset="0.03125"/><stop stop-opacity="1" stop-color="rgb(55.236816%, 33.049011%, 83.830261%)" offset="0.046875"/><stop stop-opacity="1" stop-color="rgb(54.998779%, 32.957458%, 83.7677%)" offset="0.0625"/><stop stop-opacity="1" stop-color="rgb(54.760742%, 32.865906%, 83.705139%)" offset="0.078125"/><stop stop-opacity="1" stop-color="rgb(54.524231%, 32.774353%, 83.644104%)" offset="0.09375"/><stop stop-opacity="1" stop-color="rgb(54.286194%, 32.6828%, 83.581543%)" offset="0.109375"/><stop stop-opacity="1" stop-color="rgb(54.048157%, 32.591248%, 83.518982%)" offset="0.125"/><stop stop-opacity="1" stop-color="rgb(53.81012%, 32.501221%, 83.456421%)" offset="0.140625"/><stop stop-opacity="1" stop-color="rgb(53.572083%, 32.409668%, 83.395386%)" offset="0.15625"/><stop stop-opacity="1" stop-color="rgb(53.334045%, 32.318115%, 83.332825%)" offset="0.171875"/><stop stop-opacity="1" stop-color="rgb(53.096008%, 32.226562%, 83.270264%)" offset="0.1875"/><stop stop-opacity="1" stop-color="rgb(52.857971%, 32.13501%, 83.207703%)" offset="0.203125"/><stop stop-opacity="1" stop-color="rgb(52.619934%, 32.043457%, 83.146667%)" offset="0.21875"/><stop stop-opacity="1" stop-color="rgb(52.381897%, 31.95343%, 83.084106%)" offset="0.234375"/><stop stop-opacity="1" stop-color="rgb(52.14386%, 31.861877%, 83.021545%)" offset="0.25"/><stop stop-opacity="1" stop-color="rgb(51.905823%, 31.770325%, 82.958984%)" offset="0.265625"/><stop stop-opacity="1" stop-color="rgb(51.667786%, 31.678772%, 82.897949%)" offset="0.28125"/><stop stop-opacity="1" stop-color="rgb(51.429749%, 31.587219%, 82.835388%)" offset="0.296875"/><stop stop-opacity="1" stop-color="rgb(51.193237%, 31.495667%, 82.772827%)" offset="0.3125"/><stop stop-opacity="1" stop-color="rgb(50.9552%, 31.404114%, 82.710266%)" offset="0.328125"/><stop stop-opacity="1" stop-color="rgb(50.717163%, 31.314087%, 82.649231%)" offset="0.34375"/><stop stop-opacity="1" stop-color="rgb(50.479126%, 31.222534%, 82.58667%)" offset="0.359375"/><stop stop-opacity="1" stop-color="rgb(50.241089%, 31.130981%, 82.524109%)" offset="0.369234"/><stop stop-opacity="1" stop-color="rgb(50.12207%, 31.085205%, 82.493591%)" offset="0.375"/><stop stop-opacity="1" stop-color="rgb(50.003052%, 31.039429%, 82.461548%)" offset="0.390625"/><stop stop-opacity="1" stop-color="rgb(49.765015%, 30.947876%, 82.398987%)" offset="0.40625"/><stop stop-opacity="1" stop-color="rgb(49.526978%, 30.856323%, 82.337952%)" offset="0.421875"/><stop stop-opacity="1" stop-color="rgb(49.28894%, 30.766296%, 82.275391%)" offset="0.4375"/><stop stop-opacity="1" stop-color="rgb(49.050903%, 30.674744%, 82.21283%)" offset="0.453125"/><stop stop-opacity="1" stop-color="rgb(48.812866%, 30.583191%, 82.150269%)" offset="0.46875"/><stop stop-opacity="1" stop-color="rgb(48.574829%, 30.491638%, 82.089233%)" offset="0.484375"/><stop stop-opacity="1" stop-color="rgb(48.336792%, 30.400085%, 82.026672%)" offset="0.5"/><stop stop-opacity="1" stop-color="rgb(48.100281%, 30.308533%, 81.964111%)" offset="0.515625"/><stop stop-opacity="1" stop-color="rgb(47.862244%, 30.21698%, 81.90155%)" offset="0.53125"/><stop stop-opacity="1" stop-color="rgb(47.624207%, 30.126953%, 81.840515%)" offset="0.546875"/><stop stop-opacity="1" stop-color="rgb(47.386169%, 30.0354%, 81.777954%)" offset="0.5625"/><stop stop-opacity="1" stop-color="rgb(47.148132%, 29.943848%, 81.715393%)" offset="0.578125"/><stop stop-opacity="1" stop-color="rgb(46.910095%, 29.852295%, 81.652832%)" offset="0.59375"/><stop stop-opacity="1" stop-color="rgb(46.672058%, 29.760742%, 81.591797%)" offset="0.609375"/><stop stop-opacity="1" stop-color="rgb(46.434021%, 29.669189%, 81.529236%)" offset="0.625"/><stop stop-opacity="1" stop-color="rgb(46.195984%, 29.579163%, 81.466675%)" offset="0.630766"/><stop stop-opacity="1" stop-color="rgb(46.076965%, 29.533386%, 81.436157%)" offset="0.640625"/><stop stop-opacity="1" stop-color="rgb(45.957947%, 29.48761%, 81.404114%)" offset="0.65625"/><stop stop-opacity="1" stop-color="rgb(45.71991%, 29.396057%, 81.343079%)" offset="0.671875"/><stop stop-opacity="1" stop-color="rgb(45.481873%, 29.304504%, 81.280518%)" offset="0.6875"/><stop stop-opacity="1" stop-color="rgb(45.243835%, 29.212952%, 81.217957%)" offset="0.703125"/><stop stop-opacity="1" stop-color="rgb(45.007324%, 29.121399%, 81.155396%)" offset="0.71875"/><stop stop-opacity="1" stop-color="rgb(44.769287%, 29.029846%, 81.092834%)" offset="0.734375"/><stop stop-opacity="1" stop-color="rgb(44.53125%, 28.939819%, 81.031799%)" offset="0.75"/><stop stop-opacity="1" stop-color="rgb(44.293213%, 28.848267%, 80.969238%)" offset="0.765625"/><stop stop-opacity="1" stop-color="rgb(44.055176%, 28.756714%, 80.906677%)" offset="0.78125"/><stop stop-opacity="1" stop-color="rgb(43.817139%, 28.665161%, 80.844116%)" offset="0.796875"/><stop stop-opacity="1" stop-color="rgb(43.579102%, 28.573608%, 80.783081%)" offset="0.8125"/><stop stop-opacity="1" stop-color="rgb(43.341064%, 28.482056%, 80.72052%)" offset="0.828125"/><stop stop-opacity="1" stop-color="rgb(43.103027%, 28.392029%, 80.657959%)" offset="0.84375"/><stop stop-opacity="1" stop-color="rgb(42.86499%, 28.300476%, 80.595398%)" offset="0.859375"/><stop stop-opacity="1" stop-color="rgb(42.626953%, 28.208923%, 80.534363%)" offset="0.875"/><stop stop-opacity="1" stop-color="rgb(42.388916%, 28.117371%, 80.471802%)" offset="0.890625"/><stop stop-opacity="1" stop-color="rgb(42.150879%, 28.025818%, 80.409241%)" offset="0.90625"/><stop stop-opacity="1" stop-color="rgb(41.914368%, 27.934265%, 80.34668%)" offset="0.921875"/><stop stop-opacity="1" stop-color="rgb(41.676331%, 27.842712%, 80.285645%)" offset="0.9375"/><stop stop-opacity="1" stop-color="rgb(41.438293%, 27.752686%, 80.223083%)" offset="0.953125"/><stop stop-opacity="1" stop-color="rgb(41.200256%, 27.661133%, 80.160522%)" offset="0.96875"/><stop stop-opacity="1" stop-color="rgb(40.962219%, 27.56958%, 80.097961%)" offset="0.984375"/><stop stop-opacity="1" stop-color="rgb(40.724182%, 27.478027%, 80.036926%)" offset="1"/></linearGradient><clipPath id="db389ca601"><path d="M 82 86.816406 L 216.089844 86.816406 L 216.089844 88 L 82 88 Z M 82 86.816406 " clip-rule="nonzero"/></clipPath><clipPath id="3809ee536d"><path d="M 82.164062 53.660156 C 82.089844 51.628906 82.222656 49.613281 82.566406 47.609375 C 82.910156 45.605469 83.457031 43.660156 84.203125 41.765625 C 84.945312 39.875 85.878906 38.078125 86.996094 36.378906 C 88.113281 34.675781 89.390625 33.105469 90.835938 31.667969 C 114.460938 8.039062 137.929688 -15.75 161.753906 -38.863281 C 174.644531 -51.367188 194.375 -50.277344 207.753906 -37.324219 C 208.5 -36.59375 209.210938 -35.828125 209.882812 -35.027344 C 210.554688 -34.226562 211.1875 -33.398438 211.78125 -32.539062 C 212.375 -31.679688 212.925781 -30.792969 213.429688 -29.878906 C 213.9375 -28.964844 214.398438 -28.03125 214.816406 -27.074219 C 215.234375 -26.117188 215.601562 -25.144531 215.925781 -24.152344 C 216.246094 -23.15625 216.519531 -22.152344 216.742188 -21.132812 C 216.96875 -20.117188 217.144531 -19.089844 217.269531 -18.054688 C 217.394531 -17.019531 217.46875 -15.980469 217.492188 -14.9375 C 217.519531 -13.894531 217.492188 -12.851562 217.414062 -11.8125 C 217.339844 -10.773438 217.214844 -9.738281 217.035156 -8.710938 C 216.859375 -7.683594 216.632812 -6.667969 216.359375 -5.660156 C 216.085938 -4.652344 215.761719 -3.664062 215.390625 -2.6875 C 215.019531 -1.710938 214.601562 -0.757812 214.140625 0.179688 C 213.675781 1.113281 213.167969 2.023438 212.617188 2.910156 C 212.0625 3.796875 211.472656 4.65625 210.835938 5.484375 C 210.203125 6.316406 209.527344 7.113281 208.816406 7.878906 C 191.28125 26.121094 172.808594 43.914062 154.757812 61.960938 C 149.375 67.316406 144.183594 72.894531 138.640625 77.992188 C 137.484375 79.132812 136.246094 80.179688 134.933594 81.136719 C 133.617188 82.089844 132.238281 82.941406 130.792969 83.6875 C 129.347656 84.4375 127.851562 85.070312 126.3125 85.59375 C 124.769531 86.113281 123.195312 86.515625 121.59375 86.800781 C 119.992188 87.085938 118.375 87.25 116.746094 87.289062 C 115.117188 87.332031 113.496094 87.25 111.878906 87.046875 C 110.265625 86.84375 108.675781 86.519531 107.105469 86.078125 C 105.539062 85.632812 104.015625 85.078125 102.535156 84.402344 C 88.996094 79.019531 82.226562 68.34375 82.164062 53.660156 Z M 82.164062 53.660156 " clip-rule="nonzero"/></clipPath><linearGradient x1="125.652858" gradientTransform="matrix(0.000000000000000196, 3.205893, -3.22355, 0.000000000000000197, 217.93861, -304.086239)" y1="6.559638" x2="107.27253" gradientUnits="userSpaceOnUse" y2="17.488798" id="3b82e38cb4"><stop stop-opacity="1" stop-color="rgb(46.096802%, 29.541016%, 81.440735%)" offset="0"/><stop stop-opacity="1" stop-color="rgb(45.9198%, 29.472351%, 81.394958%)" offset="0.00648193"/><stop stop-opacity="1" stop-color="rgb(45.742798%, 29.405212%, 81.349182%)" offset="0.0625"/><stop stop-opacity="1" stop-color="rgb(45.565796%, 29.336548%, 81.30188%)" offset="0.125"/><stop stop-opacity="1" stop-color="rgb(45.211792%, 29.200745%, 81.210327%)" offset="0.1875"/><stop stop-opacity="1" stop-color="rgb(44.859314%, 29.064941%, 81.117249%)" offset="0.25"/><stop stop-opacity="1" stop-color="rgb(44.50531%, 28.929138%, 81.025696%)" offset="0.3125"/><stop stop-opacity="1" stop-color="rgb(44.151306%, 28.793335%, 80.932617%)" offset="0.375"/><stop stop-opacity="1" stop-color="rgb(43.798828%, 28.657532%, 80.839539%)" offset="0.4375"/><stop stop-opacity="1" stop-color="rgb(43.444824%, 28.521729%, 80.747986%)" offset="0.5"/><stop stop-opacity="1" stop-color="rgb(43.09082%, 28.385925%, 80.654907%)" offset="0.5625"/><stop stop-opacity="1" stop-color="rgb(42.738342%, 28.250122%, 80.563354%)" offset="0.625"/><stop stop-opacity="1" stop-color="rgb(42.384338%, 28.114319%, 80.470276%)" offset="0.6875"/><stop stop-opacity="1" stop-color="rgb(42.030334%, 27.980042%, 80.378723%)" offset="0.75"/><stop stop-opacity="1" stop-color="rgb(41.677856%, 27.844238%, 80.285645%)" offset="0.8125"/><stop stop-opacity="1" stop-color="rgb(41.323853%, 27.708435%, 80.194092%)" offset="0.875"/><stop stop-opacity="1" stop-color="rgb(40.969849%, 27.572632%, 80.101013%)" offset="0.9375"/><stop stop-opacity="1" stop-color="rgb(40.617371%, 27.436829%, 80.007935%)" offset="0.993518"/><stop stop-opacity="1" stop-color="rgb(40.440369%, 27.36969%, 79.962158%)" offset="1"/></linearGradient><clipPath id="c8e906f0cc"><path d="M 233 153 L 367.769531 153 L 367.769531 288.988281 L 233 288.988281 Z M 233 153 " clip-rule="nonzero"/></clipPath><clipPath id="99828b77a3"><path d="M 269.75 153.597656 C 271.71875 153.636719 273.664062 153.875 275.585938 154.304688 C 277.507812 154.734375 279.367188 155.347656 281.167969 156.152344 C 282.96875 156.953125 284.671875 157.925781 286.277344 159.070312 C 287.886719 160.214844 289.363281 161.507812 290.714844 162.945312 C 313.832031 186.058594 337.042969 209.042969 359.898438 232.414062 C 360.632812 233.179688 361.332031 233.980469 361.988281 234.816406 C 362.644531 235.652344 363.261719 236.515625 363.839844 237.410156 C 364.414062 238.304688 364.945312 239.222656 365.433594 240.167969 C 365.921875 241.113281 366.363281 242.078125 366.761719 243.066406 C 367.15625 244.054688 367.503906 245.058594 367.804688 246.082031 C 368.105469 247.101562 368.355469 248.136719 368.558594 249.179688 C 368.757812 250.226562 368.910156 251.277344 369.011719 252.339844 C 369.113281 253.398438 369.164062 254.460938 369.164062 255.527344 C 369.164062 256.589844 369.113281 257.652344 369.011719 258.714844 C 368.910156 259.773438 368.757812 260.828125 368.558594 261.871094 C 368.355469 262.917969 368.105469 263.953125 367.804688 264.972656 C 367.503906 265.996094 367.15625 267 366.761719 267.988281 C 366.363281 268.972656 365.921875 269.941406 365.433594 270.886719 C 364.945312 271.832031 364.414062 272.75 363.839844 273.644531 C 363.261719 274.539062 362.644531 275.402344 361.988281 276.238281 C 361.332031 277.070312 360.632812 277.871094 359.898438 278.640625 C 347.300781 291.535156 326.910156 292.984375 314.023438 280.542969 C 289.980469 257.332031 266.363281 233.691406 243.171875 209.625 C 241.980469 208.464844 240.886719 207.21875 239.894531 205.886719 C 238.898438 204.550781 238.015625 203.148438 237.25 201.671875 C 236.480469 200.195312 235.832031 198.664062 235.308594 197.085938 C 234.78125 195.503906 234.386719 193.890625 234.121094 192.246094 C 233.851562 190.601562 233.71875 188.945312 233.714844 187.277344 C 233.714844 185.609375 233.84375 183.953125 234.105469 182.308594 C 234.367188 180.664062 234.761719 179.050781 235.28125 177.464844 C 235.800781 175.882812 236.445312 174.351562 237.210938 172.875 C 243.238281 160.046875 253.753906 153.050781 269.75 153.597656 Z M 269.75 153.597656 " clip-rule="nonzero"/></clipPath><linearGradient x1="168.638692" gradientTransform="matrix(-3.205893, -0.000000000000000393, 0.000000000000000395, -3.22355, 762.367231, 288.9872)" y1="6.287023" x2="119.220308" gradientUnits="userSpaceOnUse" y2="35.669905" id="1e6bd1ef69"><stop stop-opacity="1" stop-color="rgb(69.631958%, 43.772888%, 90.809631%)" offset="0"/><stop stop-opacity="1" stop-color="rgb(69.825745%, 43.745422%, 90.797424%)" offset="0.0625"/><stop stop-opacity="1" stop-color="rgb(70.211792%, 43.692017%, 90.77301%)" offset="0.125"/><stop stop-opacity="1" stop-color="rgb(70.597839%, 43.638611%, 90.750122%)" offset="0.1875"/><stop stop-opacity="1" stop-color="rgb(70.983887%, 43.585205%, 90.725708%)" offset="0.25"/><stop stop-opacity="1" stop-color="rgb(71.37146%, 43.531799%, 90.70282%)" offset="0.3125"/><stop stop-opacity="1" stop-color="rgb(71.757507%, 43.478394%, 90.678406%)" offset="0.374849"/><stop stop-opacity="1" stop-color="rgb(71.951294%, 43.452454%, 90.667725%)" offset="0.375"/><stop stop-opacity="1" stop-color="rgb(72.143555%, 43.424988%, 90.655518%)" offset="0.4375"/><stop stop-opacity="1" stop-color="rgb(72.529602%, 43.371582%, 90.631104%)" offset="0.5"/><stop stop-opacity="1" stop-color="rgb(72.917175%, 43.319702%, 90.608215%)" offset="0.5625"/><stop stop-opacity="1" stop-color="rgb(73.303223%, 43.266296%, 90.583801%)" offset="0.625"/><stop stop-opacity="1" stop-color="rgb(73.68927%, 43.212891%, 90.560913%)" offset="0.625151"/><stop stop-opacity="1" stop-color="rgb(73.883057%, 43.186951%, 90.548706%)" offset="0.6875"/><stop stop-opacity="1" stop-color="rgb(74.075317%, 43.159485%, 90.536499%)" offset="0.75"/><stop stop-opacity="1" stop-color="rgb(74.462891%, 43.106079%, 90.513611%)" offset="0.8125"/><stop stop-opacity="1" stop-color="rgb(74.848938%, 43.052673%, 90.489197%)" offset="0.875"/><stop stop-opacity="1" stop-color="rgb(75.234985%, 42.999268%, 90.466309%)" offset="0.9375"/><stop stop-opacity="1" stop-color="rgb(75.621033%, 42.945862%, 90.441895%)" offset="1"/></linearGradient><clipPath id="147b000153"><path d="M 236.421875 225 L 370 225 L 370 361 L 236.421875 361 Z M 236.421875 225 " clip-rule="nonzero"/></clipPath><clipPath id="59ef6077f5"><path d="M 369.964844 261.421875 C 369.921875 263.390625 369.6875 265.335938 369.257812 267.257812 C 368.828125 269.179688 368.210938 271.042969 367.410156 272.84375 C 366.609375 274.640625 365.632812 276.34375 364.492188 277.953125 C 363.347656 279.558594 362.054688 281.039062 360.613281 282.390625 C 337.503906 305.503906 314.519531 328.714844 291.148438 351.574219 C 290.378906 352.308594 289.578125 353.003906 288.746094 353.660156 C 287.910156 354.320312 287.046875 354.9375 286.152344 355.511719 C 285.257812 356.089844 284.339844 356.621094 283.394531 357.109375 C 282.449219 357.597656 281.480469 358.039062 280.496094 358.433594 C 279.507812 358.832031 278.503906 359.179688 277.480469 359.476562 C 276.460938 359.777344 275.425781 360.03125 274.378906 360.230469 C 273.335938 360.433594 272.28125 360.585938 271.222656 360.683594 C 270.164062 360.785156 269.101562 360.835938 268.035156 360.835938 C 266.96875 360.835938 265.90625 360.785156 264.847656 360.683594 C 263.789062 360.585938 262.734375 360.433594 261.6875 360.230469 C 260.644531 360.03125 259.609375 359.777344 258.589844 359.476562 C 257.566406 359.179688 256.5625 358.832031 255.574219 358.433594 C 254.585938 358.039062 253.621094 357.597656 252.675781 357.109375 C 251.730469 356.621094 250.8125 356.089844 249.917969 355.511719 C 249.023438 354.9375 248.160156 354.320312 247.324219 353.664062 C 246.492188 353.003906 245.6875 352.308594 244.921875 351.574219 C 232.027344 338.972656 230.578125 318.585938 243.019531 305.695312 C 266.230469 281.652344 289.867188 258.035156 313.9375 234.847656 C 315.09375 233.652344 316.339844 232.558594 317.675781 231.566406 C 319.007812 230.574219 320.414062 229.691406 321.890625 228.921875 C 323.367188 228.152344 324.894531 227.503906 326.476562 226.980469 C 328.058594 226.457031 329.671875 226.058594 331.316406 225.792969 C 332.960938 225.527344 334.617188 225.390625 336.285156 225.390625 C 337.949219 225.386719 339.605469 225.519531 341.253906 225.78125 C 342.898438 226.042969 344.511719 226.433594 346.09375 226.953125 C 347.675781 227.476562 349.207031 228.117188 350.6875 228.882812 C 363.515625 234.910156 370.511719 245.425781 369.964844 261.421875 Z M 369.964844 261.421875 " clip-rule="nonzero"/></clipPath><linearGradient x1="168.386829" gradientTransform="matrix(0.000000000000000196, -3.205893, 3.22355, 0.000000000000000197, 234.57442, 754.041173)" y1="6.436773" x2="118.899074" gradientUnits="userSpaceOnUse" y2="35.860903" id="d74f6f10e7"><stop stop-opacity="1" stop-color="rgb(45.896912%, 34.645081%, 84.594727%)" offset="0"/><stop stop-opacity="1" stop-color="rgb(45.755005%, 34.539795%, 84.526062%)" offset="0.03125"/><stop stop-opacity="1" stop-color="rgb(45.472717%, 34.33075%, 84.390259%)" offset="0.0625"/><stop stop-opacity="1" stop-color="rgb(45.19043%, 34.121704%, 84.25293%)" offset="0.09375"/><stop stop-opacity="1" stop-color="rgb(44.908142%, 33.912659%, 84.117126%)" offset="0.125"/><stop stop-opacity="1" stop-color="rgb(44.625854%, 33.703613%, 83.981323%)" offset="0.15625"/><stop stop-opacity="1" stop-color="rgb(44.343567%, 33.494568%, 83.843994%)" offset="0.1875"/><stop stop-opacity="1" stop-color="rgb(44.061279%, 33.283997%, 83.708191%)" offset="0.21875"/><stop stop-opacity="1" stop-color="rgb(43.778992%, 33.074951%, 83.572388%)" offset="0.25"/><stop stop-opacity="1" stop-color="rgb(43.496704%, 32.865906%, 83.436584%)" offset="0.28125"/><stop stop-opacity="1" stop-color="rgb(43.214417%, 32.65686%, 83.299255%)" offset="0.3125"/><stop stop-opacity="1" stop-color="rgb(42.932129%, 32.447815%, 83.163452%)" offset="0.34375"/><stop stop-opacity="1" stop-color="rgb(42.648315%, 32.23877%, 83.027649%)" offset="0.369234"/><stop stop-opacity="1" stop-color="rgb(42.507935%, 32.133484%, 82.958984%)" offset="0.375"/><stop stop-opacity="1" stop-color="rgb(42.366028%, 32.028198%, 82.89032%)" offset="0.40625"/><stop stop-opacity="1" stop-color="rgb(42.08374%, 31.819153%, 82.754517%)" offset="0.4375"/><stop stop-opacity="1" stop-color="rgb(41.801453%, 31.610107%, 82.618713%)" offset="0.46875"/><stop stop-opacity="1" stop-color="rgb(41.519165%, 31.401062%, 82.48291%)" offset="0.5"/><stop stop-opacity="1" stop-color="rgb(41.236877%, 31.192017%, 82.345581%)" offset="0.53125"/><stop stop-opacity="1" stop-color="rgb(40.95459%, 30.982971%, 82.209778%)" offset="0.5625"/><stop stop-opacity="1" stop-color="rgb(40.672302%, 30.7724%, 82.073975%)" offset="0.59375"/><stop stop-opacity="1" stop-color="rgb(40.390015%, 30.563354%, 81.936646%)" offset="0.625"/><stop stop-opacity="1" stop-color="rgb(40.107727%, 30.354309%, 81.800842%)" offset="0.630766"/><stop stop-opacity="1" stop-color="rgb(39.967346%, 30.250549%, 81.733704%)" offset="0.65625"/><stop stop-opacity="1" stop-color="rgb(39.825439%, 30.145264%, 81.665039%)" offset="0.6875"/><stop stop-opacity="1" stop-color="rgb(39.543152%, 29.936218%, 81.529236%)" offset="0.71875"/><stop stop-opacity="1" stop-color="rgb(39.260864%, 29.727173%, 81.391907%)" offset="0.75"/><stop stop-opacity="1" stop-color="rgb(38.978577%, 29.516602%, 81.256104%)" offset="0.78125"/><stop stop-opacity="1" stop-color="rgb(38.696289%, 29.307556%, 81.1203%)" offset="0.8125"/><stop stop-opacity="1" stop-color="rgb(38.414001%, 29.098511%, 80.982971%)" offset="0.84375"/><stop stop-opacity="1" stop-color="rgb(38.131714%, 28.889465%, 80.847168%)" offset="0.875"/><stop stop-opacity="1" stop-color="rgb(37.849426%, 28.68042%, 80.711365%)" offset="0.90625"/><stop stop-opacity="1" stop-color="rgb(37.567139%, 28.471375%, 80.575562%)" offset="0.9375"/><stop stop-opacity="1" stop-color="rgb(37.284851%, 28.262329%, 80.438232%)" offset="0.96875"/><stop stop-opacity="1" stop-color="rgb(37.002563%, 28.051758%, 80.302429%)" offset="1"/></linearGradient><clipPath id="0659087f2f"><path d="M 236.421875 362 L 371 362 L 371 363.140625 L 236.421875 363.140625 Z M 236.421875 362 " clip-rule="nonzero"/></clipPath><clipPath id="69d2afa114"><path d="M 370.351562 396.296875 C 370.421875 398.324219 370.289062 400.34375 369.945312 402.347656 C 369.601562 404.347656 369.058594 406.296875 368.3125 408.1875 C 367.566406 410.078125 366.632812 411.875 365.515625 413.578125 C 364.398438 415.277344 363.121094 416.847656 361.679688 418.289062 C 338.050781 441.914062 314.582031 465.703125 290.761719 488.816406 C 277.867188 501.320312 258.136719 500.230469 244.761719 487.277344 C 244.011719 486.546875 243.304688 485.78125 242.628906 484.984375 C 241.957031 484.183594 241.324219 483.351562 240.730469 482.492188 C 240.136719 481.632812 239.589844 480.746094 239.082031 479.835938 C 238.574219 478.921875 238.113281 477.988281 237.695312 477.03125 C 237.28125 476.074219 236.910156 475.097656 236.589844 474.105469 C 236.265625 473.113281 235.992188 472.109375 235.769531 471.089844 C 235.542969 470.070312 235.371094 469.042969 235.246094 468.007812 C 235.117188 466.972656 235.042969 465.933594 235.019531 464.890625 C 234.996094 463.847656 235.019531 462.808594 235.097656 461.769531 C 235.171875 460.726562 235.300781 459.695312 235.476562 458.667969 C 235.652344 457.636719 235.878906 456.621094 236.152344 455.613281 C 236.429688 454.609375 236.75 453.617188 237.121094 452.644531 C 237.492188 451.667969 237.910156 450.710938 238.375 449.777344 C 238.835938 448.839844 239.34375 447.929688 239.898438 447.042969 C 240.449219 446.15625 241.042969 445.296875 241.675781 444.46875 C 242.3125 443.640625 242.984375 442.839844 243.695312 442.074219 C 261.234375 423.835938 279.703125 406.042969 297.757812 387.992188 C 303.140625 382.636719 308.328125 377.058594 313.875 371.960938 C 315.03125 370.820312 316.265625 369.773438 317.582031 368.820312 C 318.894531 367.863281 320.277344 367.011719 321.722656 366.265625 C 323.167969 365.519531 324.660156 364.882812 326.203125 364.363281 C 327.742188 363.839844 329.316406 363.4375 330.917969 363.152344 C 332.523438 362.867188 334.136719 362.707031 335.765625 362.664062 C 337.394531 362.621094 339.015625 362.703125 340.632812 362.90625 C 342.246094 363.109375 343.839844 363.433594 345.40625 363.878906 C 346.972656 364.320312 348.496094 364.878906 349.976562 365.550781 C 363.515625 370.9375 370.285156 381.613281 370.351562 396.296875 Z M 370.351562 396.296875 " clip-rule="nonzero"/></clipPath><linearGradient x1="125.652857" gradientTransform="matrix(0.000000000000000196, -3.205893, 3.22355, 0.000000000000000197, 234.57442, 754.041173)" y1="6.559638" x2="107.272523" gradientUnits="userSpaceOnUse" y2="17.488802" id="4e50a3a1e9"><stop stop-opacity="1" stop-color="rgb(40.119934%, 30.363464%, 81.806946%)" offset="0"/><stop stop-opacity="1" stop-color="rgb(40.014648%, 30.285645%, 81.756592%)" offset="0.00648229"/><stop stop-opacity="1" stop-color="rgb(39.910889%, 30.207825%, 81.706238%)" offset="0.0625"/><stop stop-opacity="1" stop-color="rgb(39.805603%, 30.130005%, 81.654358%)" offset="0.125"/><stop stop-opacity="1" stop-color="rgb(39.595032%, 29.974365%, 81.55365%)" offset="0.1875"/><stop stop-opacity="1" stop-color="rgb(39.385986%, 29.818726%, 81.452942%)" offset="0.25"/><stop stop-opacity="1" stop-color="rgb(39.175415%, 29.663086%, 81.350708%)" offset="0.3125"/><stop stop-opacity="1" stop-color="rgb(38.96637%, 29.508972%, 81.25%)" offset="0.375"/><stop stop-opacity="1" stop-color="rgb(38.755798%, 29.353333%, 81.149292%)" offset="0.4375"/><stop stop-opacity="1" stop-color="rgb(38.546753%, 29.197693%, 81.048584%)" offset="0.5"/><stop stop-opacity="1" stop-color="rgb(38.336182%, 29.042053%, 80.94635%)" offset="0.5625"/><stop stop-opacity="1" stop-color="rgb(38.127136%, 28.886414%, 80.845642%)" offset="0.625"/><stop stop-opacity="1" stop-color="rgb(37.916565%, 28.730774%, 80.744934%)" offset="0.6875"/><stop stop-opacity="1" stop-color="rgb(37.70752%, 28.575134%, 80.6427%)" offset="0.75"/><stop stop-opacity="1" stop-color="rgb(37.498474%, 28.419495%, 80.541992%)" offset="0.8125"/><stop stop-opacity="1" stop-color="rgb(37.287903%, 28.263855%, 80.441284%)" offset="0.875"/><stop stop-opacity="1" stop-color="rgb(37.078857%, 28.109741%, 80.33905%)" offset="0.9375"/><stop stop-opacity="1" stop-color="rgb(36.868286%, 27.954102%, 80.238342%)" offset="0.993518"/><stop stop-opacity="1" stop-color="rgb(36.764526%, 27.876282%, 80.187988%)" offset="1"/></linearGradient></defs><g clip-path="url(#ca7c0598f0)"><g clip-path="url(#0eb0fcac8f)"><path fill="url(#d7faadd8c7)" d="M 84.777344 160.972656 L 84.777344 296.910156 L 218.835938 296.910156 L 218.835938 160.972656 Z M 84.777344 160.972656 " fill-rule="nonzero"/></g></g><g clip-path="url(#7bb5f0a750)"><g clip-path="url(#45bdcf97a6)"><path fill="url(#51e92fe72d)" d="M 216.089844 89.117188 L 82 89.117188 L 82 224.566406 L 216.089844 224.566406 Z M 216.089844 89.117188 " fill-rule="nonzero"/></g></g><g clip-path="url(#db389ca601)"><g clip-path="url(#3809ee536d)"><path fill="url(#3b82e38cb4)" d="M 216.089844 86.816406 L 82.089844 86.816406 L 82.089844 87.332031 L 216.089844 87.332031 Z M 216.089844 86.816406 " fill-rule="nonzero"/></g></g><g clip-path="url(#c8e906f0cc)"><g clip-path="url(#99828b77a3)"><path fill="url(#1e6bd1ef69)" d="M 367.769531 288.988281 L 367.769531 153.050781 L 233.714844 153.050781 L 233.714844 288.988281 Z M 367.769531 288.988281 " fill-rule="nonzero"/></g></g><g clip-path="url(#147b000153)"><g clip-path="url(#59ef6077f5)"><path fill="url(#d74f6f10e7)" d="M 236.421875 360.835938 L 370.511719 360.835938 L 370.511719 225.386719 L 236.421875 225.386719 Z M 236.421875 360.835938 " fill-rule="nonzero"/></g></g><g clip-path="url(#0659087f2f)"><g clip-path="url(#69d2afa114)"><path fill="url(#4e50a3a1e9)" d="M 236.421875 363.140625 L 370.421875 363.140625 L 370.421875 362.621094 L 236.421875 362.621094 Z M 236.421875 363.140625 " fill-rule="nonzero"/></g></g><g fill="#072ac8" fill-opacity="1"><g transform="translate(371.656161, 297.328805)"><g><path d="M 25.597656 -99.605469 L 5.171875 -99.605469 L 5.171875 -76.792969 L 14.589844 -76.792969 C 19.761719 -76.792969 22.148438 -74.40625 22.148438 -69.234375 L 22.148438 -55.4375 C 22.148438 -47.613281 25.066406 -42.175781 31.035156 -39.789062 C 25.066406 -37.269531 22.148438 -31.832031 22.148438 -24.136719 L 22.148438 -10.210938 C 22.148438 -4.90625 19.761719 -2.652344 14.589844 -2.652344 L 5.171875 -2.652344 L 5.171875 20.160156 L 25.597656 20.160156 C 39.523438 20.160156 47.347656 12.335938 47.347656 -1.457031 L 47.347656 -20.558594 C 47.347656 -25.863281 49.734375 -28.25 55.042969 -28.25 L 58.222656 -28.25 L 58.222656 -51.0625 L 55.042969 -51.0625 C 49.734375 -51.0625 47.347656 -53.449219 47.347656 -58.753906 L 47.347656 -77.855469 C 47.347656 -91.78125 39.523438 -99.605469 25.597656 -99.605469 Z M 25.597656 -99.605469 "/></g></g></g><g fill="#072ac8" fill-opacity="1"><g transform="translate(78.337756, 155.530975)"><g><path d="M -25.597656 99.605469 L -5.171875 99.605469 L -5.171875 76.792969 L -14.589844 76.792969 C -19.761719 76.792969 -22.148438 74.40625 -22.148438 69.234375 L -22.148438 55.4375 C -22.148438 47.613281 -25.066406 42.175781 -31.035156 39.789062 C -25.066406 37.269531 -22.148438 31.832031 -22.148438 24.136719 L -22.148438 10.210938 C -22.148438 4.90625 -19.761719 2.652344 -14.589844 2.652344 L -5.171875 2.652344 L -5.171875 -20.160156 L -25.597656 -20.160156 C -39.523438 -20.160156 -47.347656 -12.335938 -47.347656 1.457031 L -47.347656 20.558594 C -47.347656 25.863281 -49.734375 28.25 -55.042969 28.25 L -58.222656 28.25 L -58.222656 51.0625 L -55.042969 51.0625 C -49.734375 51.0625 -47.347656 53.449219 -47.347656 58.753906 L -47.347656 77.855469 C -47.347656 91.78125 -39.523438 99.605469 -25.597656 99.605469 Z M -25.597656 99.605469 "/></g></g></g></svg>